<mxfile host="app.diagrams.net" agent="Mozilla/5.0 (Windows NT 10.0; Win64; x64) AppleWebKit/537.36 (KHTML, like Gecko) Chrome/131.0.0.0 Safari/537.36" version="25.0.3">
  <diagram name="Página-1" id="1RITEQ0AKqlo6bB4tn99">
    <mxGraphModel dx="1434" dy="841" grid="1" gridSize="10" guides="1" tooltips="1" connect="1" arrows="1" fold="1" page="1" pageScale="1" pageWidth="827" pageHeight="1169" math="0" shadow="0">
      <root>
        <mxCell id="0" />
        <mxCell id="1" parent="0" />
        <mxCell id="5VljVAOempJqkZPhV7aZ-45" value="" style="rounded=0;whiteSpace=wrap;html=1;fillColor=#f5f5f5;gradientColor=#b3b3b3;strokeColor=#666666;" vertex="1" parent="1">
          <mxGeometry x="120" y="50" width="820" height="870" as="geometry" />
        </mxCell>
        <mxCell id="5VljVAOempJqkZPhV7aZ-1" value="&lt;font style=&quot;font-size: 18px;&quot;&gt;Projeto Corre!&lt;/font&gt;&lt;div&gt;&lt;font style=&quot;font-size: 18px;&quot;&gt;Aplicativo interativo&lt;/font&gt;&lt;/div&gt;" style="rounded=1;whiteSpace=wrap;html=1;fillColor=#ffcd28;gradientColor=#ffa500;strokeColor=#d79b00;" vertex="1" parent="1">
          <mxGeometry x="365" y="70" width="330" height="70" as="geometry" />
        </mxCell>
        <mxCell id="5VljVAOempJqkZPhV7aZ-3" style="edgeStyle=orthogonalEdgeStyle;rounded=0;orthogonalLoop=1;jettySize=auto;html=1;exitX=0.5;exitY=1;exitDx=0;exitDy=0;endArrow=none;endFill=0;" edge="1" parent="1" source="5VljVAOempJqkZPhV7aZ-2" target="5VljVAOempJqkZPhV7aZ-4">
          <mxGeometry relative="1" as="geometry">
            <mxPoint x="390" y="320" as="targetPoint" />
          </mxGeometry>
        </mxCell>
        <mxCell id="5VljVAOempJqkZPhV7aZ-2" value="&lt;font style=&quot;font-size: 15px;&quot;&gt;Início&lt;/font&gt;" style="ellipse;whiteSpace=wrap;html=1;fillColor=#dae8fc;gradientColor=#7ea6e0;strokeColor=#6c8ebf;" vertex="1" parent="1">
          <mxGeometry x="330" y="160" width="120" height="80" as="geometry" />
        </mxCell>
        <mxCell id="5VljVAOempJqkZPhV7aZ-5" style="edgeStyle=orthogonalEdgeStyle;rounded=0;orthogonalLoop=1;jettySize=auto;html=1;exitX=0.5;exitY=1;exitDx=0;exitDy=0;endArrow=none;endFill=0;" edge="1" parent="1" source="5VljVAOempJqkZPhV7aZ-4" target="5VljVAOempJqkZPhV7aZ-6">
          <mxGeometry relative="1" as="geometry">
            <mxPoint x="390" y="410" as="targetPoint" />
          </mxGeometry>
        </mxCell>
        <mxCell id="5VljVAOempJqkZPhV7aZ-42" style="edgeStyle=orthogonalEdgeStyle;rounded=0;orthogonalLoop=1;jettySize=auto;html=1;exitX=0.5;exitY=1;exitDx=0;exitDy=0;entryX=0.5;entryY=0;entryDx=0;entryDy=0;endArrow=none;endFill=0;" edge="1" parent="1" source="5VljVAOempJqkZPhV7aZ-4" target="5VljVAOempJqkZPhV7aZ-7">
          <mxGeometry relative="1" as="geometry" />
        </mxCell>
        <mxCell id="5VljVAOempJqkZPhV7aZ-4" value="&lt;font style=&quot;font-size: 14px;&quot;&gt;Terminou&lt;/font&gt;" style="ellipse;whiteSpace=wrap;html=1;fillColor=#d5e8d4;gradientColor=#97d077;strokeColor=#82b366;" vertex="1" parent="1">
          <mxGeometry x="330" y="280" width="120" height="80" as="geometry" />
        </mxCell>
        <mxCell id="5VljVAOempJqkZPhV7aZ-11" style="edgeStyle=orthogonalEdgeStyle;rounded=0;orthogonalLoop=1;jettySize=auto;html=1;exitX=0;exitY=0.5;exitDx=0;exitDy=0;entryX=0;entryY=0.5;entryDx=0;entryDy=0;" edge="1" parent="1" source="5VljVAOempJqkZPhV7aZ-6" target="5VljVAOempJqkZPhV7aZ-4">
          <mxGeometry relative="1" as="geometry" />
        </mxCell>
        <mxCell id="5VljVAOempJqkZPhV7aZ-6" value="&lt;font style=&quot;font-size: 14px;&quot;&gt;Corre&lt;/font&gt;" style="ellipse;whiteSpace=wrap;html=1;fillColor=#fff2cc;gradientColor=#ffd966;strokeColor=#d6b656;" vertex="1" parent="1">
          <mxGeometry x="190" y="400" width="120" height="80" as="geometry" />
        </mxCell>
        <mxCell id="5VljVAOempJqkZPhV7aZ-16" style="edgeStyle=orthogonalEdgeStyle;rounded=0;orthogonalLoop=1;jettySize=auto;html=1;exitX=0.5;exitY=1;exitDx=0;exitDy=0;endArrow=none;endFill=0;" edge="1" parent="1" source="5VljVAOempJqkZPhV7aZ-7">
          <mxGeometry relative="1" as="geometry">
            <mxPoint x="400" y="530" as="targetPoint" />
          </mxGeometry>
        </mxCell>
        <mxCell id="5VljVAOempJqkZPhV7aZ-41" style="edgeStyle=orthogonalEdgeStyle;rounded=0;orthogonalLoop=1;jettySize=auto;html=1;exitX=0.5;exitY=1;exitDx=0;exitDy=0;entryX=0.5;entryY=0;entryDx=0;entryDy=0;endArrow=none;endFill=0;" edge="1" parent="1" source="5VljVAOempJqkZPhV7aZ-7" target="5VljVAOempJqkZPhV7aZ-19">
          <mxGeometry relative="1" as="geometry" />
        </mxCell>
        <mxCell id="5VljVAOempJqkZPhV7aZ-7" value="&lt;font style=&quot;font-size: 14px;&quot;&gt;Fez Mobile?&lt;/font&gt;" style="ellipse;whiteSpace=wrap;html=1;fillColor=#e6d0de;gradientColor=#d5739d;strokeColor=#996185;" vertex="1" parent="1">
          <mxGeometry x="460" y="400" width="120" height="80" as="geometry" />
        </mxCell>
        <mxCell id="5VljVAOempJqkZPhV7aZ-9" value="Não" style="text;html=1;align=center;verticalAlign=middle;resizable=0;points=[];autosize=1;strokeColor=none;fillColor=none;" vertex="1" parent="1">
          <mxGeometry x="305" y="358" width="50" height="30" as="geometry" />
        </mxCell>
        <mxCell id="5VljVAOempJqkZPhV7aZ-10" value="Sim" style="text;html=1;align=center;verticalAlign=middle;resizable=0;points=[];autosize=1;strokeColor=none;fillColor=none;" vertex="1" parent="1">
          <mxGeometry x="420" y="358" width="40" height="30" as="geometry" />
        </mxCell>
        <mxCell id="5VljVAOempJqkZPhV7aZ-29" style="edgeStyle=orthogonalEdgeStyle;rounded=0;orthogonalLoop=1;jettySize=auto;html=1;exitX=0.5;exitY=1;exitDx=0;exitDy=0;entryX=0.5;entryY=0;entryDx=0;entryDy=0;endArrow=none;endFill=0;" edge="1" parent="1" source="5VljVAOempJqkZPhV7aZ-19" target="5VljVAOempJqkZPhV7aZ-26">
          <mxGeometry relative="1" as="geometry" />
        </mxCell>
        <mxCell id="5VljVAOempJqkZPhV7aZ-19" value="&lt;font style=&quot;font-size: 14px;&quot;&gt;Fez Documentação?&lt;/font&gt;" style="ellipse;whiteSpace=wrap;html=1;fillColor=#e6d0de;gradientColor=#d5739d;strokeColor=#996185;" vertex="1" parent="1">
          <mxGeometry x="590" y="530" width="120" height="80" as="geometry" />
        </mxCell>
        <mxCell id="5VljVAOempJqkZPhV7aZ-43" style="edgeStyle=orthogonalEdgeStyle;rounded=0;orthogonalLoop=1;jettySize=auto;html=1;exitX=0;exitY=0.5;exitDx=0;exitDy=0;entryX=0;entryY=0.5;entryDx=0;entryDy=0;" edge="1" parent="1" source="5VljVAOempJqkZPhV7aZ-20" target="5VljVAOempJqkZPhV7aZ-7">
          <mxGeometry relative="1" as="geometry" />
        </mxCell>
        <mxCell id="5VljVAOempJqkZPhV7aZ-20" value="&lt;font style=&quot;font-size: 14px;&quot;&gt;Corre&lt;/font&gt;" style="ellipse;whiteSpace=wrap;html=1;fillColor=#fff2cc;gradientColor=#ffd966;strokeColor=#d6b656;" vertex="1" parent="1">
          <mxGeometry x="340" y="530" width="120" height="80" as="geometry" />
        </mxCell>
        <mxCell id="5VljVAOempJqkZPhV7aZ-21" value="Não" style="text;html=1;align=center;verticalAlign=middle;resizable=0;points=[];autosize=1;strokeColor=none;fillColor=none;" vertex="1" parent="1">
          <mxGeometry x="424" y="483" width="50" height="30" as="geometry" />
        </mxCell>
        <mxCell id="5VljVAOempJqkZPhV7aZ-22" value="Sim" style="text;html=1;align=center;verticalAlign=middle;resizable=0;points=[];autosize=1;strokeColor=none;fillColor=none;" vertex="1" parent="1">
          <mxGeometry x="561" y="484" width="40" height="30" as="geometry" />
        </mxCell>
        <mxCell id="5VljVAOempJqkZPhV7aZ-28" style="edgeStyle=orthogonalEdgeStyle;rounded=0;orthogonalLoop=1;jettySize=auto;html=1;exitX=0;exitY=0.5;exitDx=0;exitDy=0;entryX=0;entryY=0.5;entryDx=0;entryDy=0;" edge="1" parent="1" source="5VljVAOempJqkZPhV7aZ-26" target="5VljVAOempJqkZPhV7aZ-19">
          <mxGeometry relative="1" as="geometry" />
        </mxCell>
        <mxCell id="5VljVAOempJqkZPhV7aZ-26" value="&lt;font style=&quot;font-size: 14px;&quot;&gt;Corre&lt;/font&gt;" style="ellipse;whiteSpace=wrap;html=1;fillColor=#fff2cc;gradientColor=#ffd966;strokeColor=#d6b656;" vertex="1" parent="1">
          <mxGeometry x="490" y="670" width="120" height="80" as="geometry" />
        </mxCell>
        <mxCell id="5VljVAOempJqkZPhV7aZ-35" style="edgeStyle=orthogonalEdgeStyle;rounded=0;orthogonalLoop=1;jettySize=auto;html=1;exitX=0.5;exitY=1;exitDx=0;exitDy=0;entryX=0.5;entryY=0;entryDx=0;entryDy=0;endArrow=none;endFill=0;" edge="1" parent="1" source="5VljVAOempJqkZPhV7aZ-27" target="5VljVAOempJqkZPhV7aZ-33">
          <mxGeometry relative="1" as="geometry" />
        </mxCell>
        <mxCell id="5VljVAOempJqkZPhV7aZ-36" style="edgeStyle=orthogonalEdgeStyle;rounded=0;orthogonalLoop=1;jettySize=auto;html=1;exitX=0.5;exitY=1;exitDx=0;exitDy=0;entryX=0.5;entryY=0;entryDx=0;entryDy=0;endArrow=none;endFill=0;" edge="1" parent="1" source="5VljVAOempJqkZPhV7aZ-27" target="5VljVAOempJqkZPhV7aZ-34">
          <mxGeometry relative="1" as="geometry" />
        </mxCell>
        <mxCell id="5VljVAOempJqkZPhV7aZ-27" value="&lt;font style=&quot;font-size: 14px;&quot;&gt;Fez Apresentação?&lt;/font&gt;" style="ellipse;whiteSpace=wrap;html=1;fillColor=#e6d0de;gradientColor=#d5739d;strokeColor=#996185;" vertex="1" parent="1">
          <mxGeometry x="707" y="670" width="120" height="80" as="geometry" />
        </mxCell>
        <mxCell id="5VljVAOempJqkZPhV7aZ-30" style="edgeStyle=orthogonalEdgeStyle;rounded=0;orthogonalLoop=1;jettySize=auto;html=1;exitX=0.5;exitY=1;exitDx=0;exitDy=0;endArrow=none;endFill=0;entryX=0.45;entryY=-0.025;entryDx=0;entryDy=0;entryPerimeter=0;" edge="1" parent="1" source="5VljVAOempJqkZPhV7aZ-19" target="5VljVAOempJqkZPhV7aZ-27">
          <mxGeometry relative="1" as="geometry">
            <mxPoint x="734" y="660" as="targetPoint" />
          </mxGeometry>
        </mxCell>
        <mxCell id="5VljVAOempJqkZPhV7aZ-31" value="Não" style="text;html=1;align=center;verticalAlign=middle;resizable=0;points=[];autosize=1;strokeColor=none;fillColor=none;" vertex="1" parent="1">
          <mxGeometry x="565" y="618" width="50" height="30" as="geometry" />
        </mxCell>
        <mxCell id="5VljVAOempJqkZPhV7aZ-32" value="Sim" style="text;html=1;align=center;verticalAlign=middle;resizable=0;points=[];autosize=1;strokeColor=none;fillColor=none;" vertex="1" parent="1">
          <mxGeometry x="679" y="618" width="40" height="30" as="geometry" />
        </mxCell>
        <mxCell id="5VljVAOempJqkZPhV7aZ-39" style="edgeStyle=orthogonalEdgeStyle;rounded=0;orthogonalLoop=1;jettySize=auto;html=1;exitX=0;exitY=0.5;exitDx=0;exitDy=0;entryX=0;entryY=0.5;entryDx=0;entryDy=0;" edge="1" parent="1" source="5VljVAOempJqkZPhV7aZ-33" target="5VljVAOempJqkZPhV7aZ-27">
          <mxGeometry relative="1" as="geometry" />
        </mxCell>
        <mxCell id="5VljVAOempJqkZPhV7aZ-33" value="&lt;font style=&quot;font-size: 14px;&quot;&gt;Corre&lt;/font&gt;" style="ellipse;whiteSpace=wrap;html=1;fillColor=#fff2cc;gradientColor=#ffd966;strokeColor=#d6b656;" vertex="1" parent="1">
          <mxGeometry x="640" y="810" width="120" height="80" as="geometry" />
        </mxCell>
        <mxCell id="5VljVAOempJqkZPhV7aZ-34" value="Fim" style="ellipse;whiteSpace=wrap;html=1;fillColor=#dae8fc;gradientColor=#7ea6e0;strokeColor=#6c8ebf;" vertex="1" parent="1">
          <mxGeometry x="790" y="810" width="120" height="80" as="geometry" />
        </mxCell>
        <mxCell id="5VljVAOempJqkZPhV7aZ-37" value="Não" style="text;html=1;align=center;verticalAlign=middle;resizable=0;points=[];autosize=1;strokeColor=none;fillColor=none;" vertex="1" parent="1">
          <mxGeometry x="707" y="759" width="50" height="30" as="geometry" />
        </mxCell>
        <mxCell id="5VljVAOempJqkZPhV7aZ-38" value="Sim" style="text;html=1;align=center;verticalAlign=middle;resizable=0;points=[];autosize=1;strokeColor=none;fillColor=none;" vertex="1" parent="1">
          <mxGeometry x="780" y="758" width="40" height="30" as="geometry" />
        </mxCell>
      </root>
    </mxGraphModel>
  </diagram>
</mxfile>
